<svg xmlns="http://www.w3.org/2000/svg" xmlns:xlink="http://www.w3.org/1999/xlink" viewBox="0 0 85.074 86.074" fill="#fff" fill-rule="evenodd" stroke="#000" stroke-linecap="round" stroke-linejoin="round" width="300" height="300" font-family="Roboto" font-size="14px" text-anchor="middle"><defs><style type="text/css"></style></defs><use xlink:href="#A" x="10.537" y="10.537"></use><symbol id="A" overflow="visible"><g stroke="none" fill-rule="nonzero"><path d="M23.075 53.232H12.328V40.377c0-2.74 1.054-4.215 3.414-4.5h7.376a8.01 8.01 0 0 1 8.64 8.661c0 5.48-3.31 8.745-8.64 8.745zM12.307 18.48V15.1c0-2.95 1.264-4.383 4.004-4.552h5.52c4.72 0 7.586 2.824 7.586 7.586 0 3.582-1.94 7.797-7.376 7.797H12.35zm24.53 12.855l-1.94-1.096 1.686-1.475c1.98-1.686 5.268-5.52 5.268-12.117C41.852 6.533 34.013 0 21.895 0H6.512C2.903.124.032 3.07 0 6.68V64h22.17c13.487 0 22.17-7.334 22.17-18.713 0-6.11-2.803-11.38-7.544-14.014" fill="#273b7d"></path><path d="M47.837 56.308c0-4.278 3.435-7.734 7.692-7.734a7.74 7.74 0 0 1 7.734 7.734c0 4.278-3.456 7.734-7.734 7.734s-7.692-3.456-7.692-7.734" fill="#499fdd"></path></g></symbol></svg>